<svg fill-rule="evenodd" fill="#8abe06" width="111px" height="18px" viewBox="0 0 134 22" version="1.1" xmlns="http://www.w3.org/2000/svg" xmlns:xlink="http://www.w3.org/1999/xlink" xmlns:sketch="http://www.bohemiancoding.com/sketch/ns">
    <path d="M0,0.0968553459 C1.0487551,0.0387421384 2.09887755,0.0830188679 3.149,0.0691823899 C9.31026531,0.0830188679 15.4715306,0.041509434 21.6327959,0.0899371069 C21.6423673,7.36377358 21.6423673,14.6362264 21.6327959,21.9100629 C20.1191429,21.9391195 18.6041224,21.952956 17.0918367,21.9031447 L17.0918367,13.2830189 L4.54642857,13.2830189 C4.54232653,16.158239 4.55463265,19.0334591 4.54095918,21.9100629 C3.02730612,21.9405031 1.51228571,21.952956 0,21.9031447 L0,0.0968553459 Z M4.54642857,8.71698113 L4.54642857,4.63522013 L17.0918367,4.63522013 L17.0918367,8.71698113 L4.54642857,8.71698113 Z" id="Fill-2"></path>
    <path d="M25.8784082,0.102389937 C27.3770204,0.0428930818 28.881102,0.0567295597 30.3783469,0.0927044025 C30.4125306,0.28918239 30.4275714,0.488427673 30.4275714,0.690440252 C30.4193673,3.36503145 30.4262041,6.04100629 30.4234694,8.71698113 L42.9688776,8.71698113 C42.9702449,5.84591195 42.9675102,2.97345912 42.9702449,0.102389937 C44.4825306,0.0442767296 46.0016531,0.0525786164 47.5139388,0.0996226415 C47.4975306,4.49408805 47.5508571,8.88993711 47.4879592,13.2830189 L38.9693878,13.2830189 L38.9693878,21.9031447 C37.457102,21.952956 35.9420816,21.9391195 34.4284286,21.9100629 C34.4147551,19.0348428 34.4270612,16.158239 34.4229592,13.2830189 C31.5870816,13.2844025 28.7512041,13.2788679 25.9153265,13.2857862 C25.8907143,13.007673 25.8756735,12.7281761 25.8756735,12.4500629 C25.8797755,8.33371069 25.8743061,4.21874214 25.8784082,0.102389937" id="Fill-3"></path>
    <path d="M51.7540816,0.0996226415 C53.2677347,0.0525786164 54.7854898,0.0442767296 56.2991429,0.102389937 C56.3018776,5.85698113 56.2991429,11.6101887 56.3005102,17.3647799 L68.2292449,17.3647799 C69.9493673,17.3855346 71.6722245,17.3218868 73.3909796,17.3979874 C73.3923469,18.8978616 73.3923469,20.3977358 73.3909796,21.8976101 C71.1252857,21.9750943 68.8568571,21.9086792 66.5897959,21.9308176 L53.5986327,21.9308176 C52.9833265,21.9322013 52.3680204,21.9446541 51.755449,21.9003774 C51.7540816,14.6334591 51.7540816,7.36654088 51.7540816,0.0996226415" id="Fill-4"></path>
    <path d="M77.6379592,0.0899371069 C79.1502449,0.0608805031 80.6652653,0.0456603774 82.177551,0.0968553459 L82.177551,21.9031447 C80.6652653,21.952956 79.1502449,21.9391195 77.6365918,21.9100629 C77.6270204,14.6362264 77.6270204,7.36377358 77.6379592,0.0899371069" id="Fill-5"></path>
    <path d="M86.4163265,0.0968553459 C89.6952245,0.0318238994 92.9768571,0.0871698113 96.2571224,0.0691823899 C100.188245,0.0830188679 104.119367,0.041509434 108.049122,0.0899371069 C108.058694,1.59811321 108.058694,3.10628931 108.049122,4.61446541 C102.354122,4.66289308 96.6577551,4.62138365 90.9627551,4.63522013 L90.9627551,8.71698113 C93.7986327,8.71559748 96.6345102,8.72113208 99.4703878,8.71421384 C99.5332857,10.2348428 99.5332857,11.7651572 99.4703878,13.2857862 C96.6345102,13.2788679 93.7986327,13.2844025 90.9627551,13.2830189 L90.9627551,17.3647799 C96.6577551,17.3786164 102.354122,17.3371069 108.049122,17.3855346 C108.058694,18.8937107 108.058694,20.4018868 108.049122,21.9100629 C103.889653,21.9584906 99.7288163,21.9169811 95.5693469,21.9308176 C92.5187959,21.9128302 89.4655102,21.9681761 86.4163265,21.9031447 L86.4163265,0.0968553459" id="Fill-6"></path>
    <path d="M112.294735,0.102389937 C114.606918,0.0262893082 116.921837,0.0913207547 119.235388,0.0691823899 C124.134592,0.0899371069 129.033796,0.0290566038 133.931633,0.0996226415 L133.931633,21.9003774 C132.41798,21.9474214 130.898857,21.9557233 129.386571,21.8976101 C129.383837,16.1430189 129.386571,10.3898113 129.385204,4.63522013 L116.839796,4.63522013 C116.838429,10.3898113 116.841163,16.1457862 116.838429,21.9003774 C115.326143,21.9474214 113.80702,21.9557233 112.294735,21.8976101 C112.292,14.6320755 112.292,7.36792453 112.294735,0.102389937" id="Fill-7"></path>
</svg>